<svg width="16" height="16" viewBox="0 0 16 16" fill="none" xmlns="http://www.w3.org/2000/svg">
<path fill-rule="evenodd" clip-rule="evenodd" d="M8.54 8.34623C8.00783 8.87826 7.14199 8.87902 6.60982 8.34623C6.07764 7.81419 6.07764 6.94784 6.60982 6.4158C6.87553 6.15016 7.22579 6.01734 7.57529 6.01734C7.92554 6.01734 8.27429 6.15016 8.54 6.4158C9.07294 6.94784 9.07294 7.81419 8.54 8.34623ZM5.96895 5.77585C5.08426 6.66107 5.08426 8.10096 5.96895 8.98693C6.41281 9.42916 6.99329 9.65028 7.57529 9.65028C8.15653 9.65028 8.73852 9.42916 9.18087 8.98693C10.0663 8.10096 10.0663 6.66107 9.18087 5.77585C8.29617 4.89063 6.85516 4.88988 5.96895 5.77585ZM15.0703 1.36637L13.7266 4.89743C12.9635 4.71102 12.1437 4.92761 11.5745 5.49663C10.6891 6.3826 10.6891 7.82551 11.5753 8.71148C11.7383 8.87449 11.921 9.00957 12.1226 9.11523C11.533 10.6668 10.9797 12.1218 10.5675 13.2123C8.75211 12.6531 7.07784 11.6418 5.71683 10.2812C4.35204 8.91675 3.33977 7.23612 2.78269 5.41286L8.47736 3.2583C8.56417 3.39339 8.66455 3.51866 8.77551 3.63035C9.20427 4.05749 9.77194 4.29294 10.3758 4.29294H10.3819C10.9865 4.29143 11.5564 4.05447 11.9859 3.62507C12.4977 3.11265 12.7272 2.38893 12.6223 1.69087L14.6332 0.930172C14.8197 0.861498 14.9465 0.960359 14.994 1.0079C15.0401 1.05394 15.1405 1.18223 15.0703 1.36637ZM12.4494 8.25793C12.3649 8.20435 12.2871 8.14247 12.2154 8.07078C11.6817 7.53798 11.6817 6.67012 12.2147 6.13733C12.5302 5.82189 12.9741 5.6868 13.4005 5.75472C13.088 6.57579 12.7665 7.42328 12.4494 8.25793ZM10.7948 14.7601C10.794 14.7608 10.7932 14.7624 10.7932 14.7639C10.711 15.0129 10.443 15.1495 10.1841 15.0733C8.00631 14.4326 5.99914 13.2379 4.37922 11.6184C2.76306 10.0027 1.56964 8.00059 0.928011 5.83019C0.849506 5.56304 0.98989 5.28759 1.24881 5.20306C1.29938 5.18646 1.35299 5.17816 1.40433 5.17816C1.48358 5.17816 1.56209 5.19703 1.63456 5.23551C1.75081 5.29589 1.83383 5.39852 1.87007 5.52228C2.45961 7.54704 3.5685 9.41407 5.07671 10.9219C6.58945 12.4342 8.4615 13.5458 10.4928 14.1352C10.52 14.1435 10.5449 14.1541 10.5698 14.1662C10.5887 14.179 10.6083 14.1918 10.6302 14.2024C10.6876 14.2431 10.7359 14.2982 10.7706 14.3639C10.8318 14.4794 10.8431 14.6114 10.7948 14.7601ZM11.7421 2.02368C11.7421 2.37686 11.6047 2.72551 11.3458 2.98436C11.0861 3.24321 10.7434 3.38659 10.3796 3.38735H10.3758C10.0135 3.38735 9.67305 3.24623 9.4164 2.98964C9.39602 2.96927 9.37639 2.94814 9.35751 2.9255L11.7421 2.02368ZM15.6342 0.36795C15.2847 0.0162777 14.7789 -0.0939028 14.3132 0.0834426L11.9731 0.96866C11.958 0.972433 11.9437 0.976961 11.9286 0.982998C11.9135 0.988281 11.8976 0.995073 11.8833 1.00262L2.32526 4.6182C2.24373 4.54726 2.15464 4.48538 2.05726 4.43406C1.72437 4.25898 1.32656 4.22578 0.967246 4.34199C0.239562 4.58047 -0.158986 5.34645 0.0599229 6.08677C0.743824 8.40207 2.01576 10.5363 3.73835 12.2591C5.46547 13.9851 7.60548 15.2589 9.92894 15.9419C10.0641 15.9811 10.1984 16 10.332 16C10.9201 16 11.4598 15.6317 11.6531 15.0491L11.6613 15.0235C11.7791 14.6673 11.7466 14.2733 11.573 13.942C11.5164 13.8356 11.4485 13.739 11.37 13.653C12.1445 11.6049 13.4534 8.16586 14.56 5.2574L15.9165 1.68861C16.0931 1.22449 15.9852 0.718867 15.6342 0.36795Z" fill="#202020"/>
</svg>
