<svg width="16" height="16" viewBox="0 0 16 16" fill="none" xmlns="http://www.w3.org/2000/svg">
<path fill-rule="evenodd" clip-rule="evenodd" d="M10.6106 9.97105C10.7872 10.1469 10.7872 10.4345 10.6106 10.6111C10.5223 10.6994 10.406 10.7431 10.2906 10.7431C10.1751 10.7431 10.0596 10.6994 9.97057 10.6111L7.68 8.31965C7.59471 8.23512 7.54716 8.1204 7.54716 8.00039V2.85297C7.54716 2.60315 7.7502 2.40086 8.00001 2.40086C8.24982 2.40086 8.45284 2.60315 8.45284 2.85297V7.81245L10.6106 9.97105ZM8.00001 15.0951C4.08755 15.0951 0.905659 11.9123 0.905659 8.00039C0.905659 4.08775 4.08755 0.904944 8.00001 0.904944C11.9125 0.904944 15.0943 4.08775 15.0943 8.00039C15.0943 11.9123 11.9125 15.0951 8.00001 15.0951ZM8.00001 0C3.58869 0 0 3.58886 0 8.00039C0 12.4112 3.58869 16 8.00001 16C12.4113 16 16 12.4112 16 8.00039C16 3.58886 12.4113 0 8.00001 0Z" fill="#202020"/>
</svg>
