<svg width="101" height="43" viewBox="0 0 101 43" fill="none" xmlns="http://www.w3.org/2000/svg">
<path d="M8.51918 29.2727H6.68253V34.7614H6.60582L2.83878 29.2727H1.21946V38H3.06463V32.5071H3.12855L6.92543 38H8.51918V29.2727ZM11.5437 38H17.4414V36.4787H13.3888V34.3949H17.1218V32.8736H13.3888V30.794H17.4244V29.2727H11.5437V38ZM21.8956 38L22.5433 36.0099H25.6925L26.3402 38H28.3175L25.3089 29.2727H22.9311L19.9183 38H21.8956ZM23.0121 34.5696L24.0859 31.267H24.1541L25.228 34.5696H23.0121ZM30.8679 38H32.7131V35.1705H34.2642C36.2713 35.1705 37.4389 33.973 37.4389 32.2301C37.4389 30.4957 36.2926 29.2727 34.3111 29.2727H30.8679V38ZM32.7131 33.6918V30.7812H33.9574C35.0227 30.7812 35.5384 31.3608 35.5384 32.2301C35.5384 33.0952 35.0227 33.6918 33.9659 33.6918H32.7131ZM48.1573 33.6364C48.1573 30.7812 46.3846 29.1534 44.0707 29.1534C41.744 29.1534 39.984 30.7812 39.984 33.6364C39.984 36.4787 41.744 38.1193 44.0707 38.1193C46.3846 38.1193 48.1573 36.4915 48.1573 33.6364ZM46.2866 33.6364C46.2866 35.4858 45.4087 36.4872 44.0707 36.4872C42.7283 36.4872 41.8548 35.4858 41.8548 33.6364C41.8548 31.7869 42.7283 30.7855 44.0707 30.7855C45.4087 30.7855 46.2866 31.7869 46.2866 33.6364ZM51.0241 38H56.6108V36.4787H52.8693V29.2727H51.0241V38ZM61.1779 29.2727H59.3327V38H61.1779V29.2727ZM63.8636 30.794H66.5355V38H68.3594V30.794H71.0312V29.2727H63.8636V30.794ZM74.1378 38L74.7855 36.0099H77.9347L78.5824 38H80.5597L77.5511 29.2727H75.1733L72.1605 38H74.1378ZM75.2543 34.5696L76.3281 31.267H76.3963L77.4702 34.5696H75.2543ZM90.4098 29.2727H88.5732V34.7614H88.4964L84.7294 29.2727H83.1101V38H84.9553V32.5071H85.0192L88.8161 38H90.4098V29.2727ZM98.1687 31.7827H99.9371C99.9116 30.2273 98.6332 29.1534 96.69 29.1534C94.7766 29.1534 93.3746 30.2102 93.3832 31.7955C93.3789 33.0824 94.2866 33.8196 95.761 34.1733L96.7113 34.4119C97.6616 34.642 98.19 34.9148 98.1942 35.5028C98.19 36.142 97.5849 36.5767 96.6474 36.5767C95.6886 36.5767 94.9982 36.1335 94.9386 35.2599H93.1531C93.1999 37.1477 94.5508 38.1236 96.6687 38.1236C98.7994 38.1236 100.052 37.1051 100.056 35.5071C100.052 34.054 98.957 33.2827 97.44 32.9418L96.6559 32.7543C95.8974 32.5795 95.2624 32.2983 95.2752 31.6719C95.2752 31.1094 95.7738 30.696 96.6772 30.696C97.5593 30.696 98.1005 31.0966 98.1687 31.7827Z" fill="#202020"/>
<path fill-rule="evenodd" clip-rule="evenodd" d="M50.675 10.4328C50.0098 11.0978 48.9275 11.0988 48.2623 10.4328C47.5971 9.76774 47.5971 8.6848 48.2623 8.01975C48.5944 7.6877 49.0322 7.52168 49.4691 7.52168C49.9069 7.52168 50.3429 7.6877 50.675 8.01975C51.3412 8.6848 51.3412 9.76774 50.675 10.4328ZM47.4612 7.21981C46.3553 8.32633 46.3553 10.1262 47.4612 11.2337C48.016 11.7865 48.7416 12.0629 49.4691 12.0629C50.1957 12.0629 50.9232 11.7865 51.4761 11.2337C52.5829 10.1262 52.5829 8.32633 51.4761 7.21981C50.3702 6.11329 48.5689 6.11235 47.4612 7.21981ZM58.8379 1.70796L57.1583 6.12178C56.2043 5.88878 55.1796 6.15951 54.4682 6.87078C53.3614 7.97825 53.3613 9.78189 54.4691 10.8894C54.6729 11.0931 54.9013 11.262 55.1532 11.394C54.4163 13.3335 53.7246 15.1522 53.2094 16.5154C50.9401 15.8163 48.8473 14.5523 47.146 12.8515C45.4401 11.1459 44.1747 9.04515 43.4784 6.76607L50.5967 4.07288C50.7052 4.24173 50.8307 4.39832 50.9694 4.53794C51.5053 5.07186 52.2149 5.36618 52.9698 5.36618H52.9773C53.7331 5.36429 54.4455 5.06809 54.9824 4.53133C55.6222 3.89081 55.909 2.98617 55.7778 2.11359L58.2915 1.16272C58.5246 1.07687 58.6831 1.20045 58.7425 1.25988C58.8001 1.31742 58.9256 1.47779 58.8379 1.70796ZM55.5618 10.3224C55.4561 10.2554 55.3589 10.1781 55.2693 10.0885C54.6022 9.42248 54.6021 8.33766 55.2683 7.67167C55.6627 7.27736 56.2176 7.1085 56.7507 7.1934C56.36 8.21974 55.9581 9.2791 55.5618 10.3224ZM53.4935 18.4501C53.4925 18.4511 53.4916 18.4529 53.4916 18.4548C53.3887 18.7661 53.0537 18.9369 52.7301 18.8416C50.0079 18.0407 47.4989 16.5474 45.474 14.523C43.4538 12.5034 41.9621 10.0007 41.16 7.28773C41.0619 6.9538 41.2374 6.60948 41.561 6.50383C41.6242 6.48308 41.6912 6.4727 41.7554 6.4727C41.8545 6.4727 41.9526 6.49628 42.0432 6.54439C42.1885 6.61986 42.2923 6.74815 42.3376 6.90286C43.0745 9.4338 44.4606 11.7676 46.3459 13.6524C48.2368 15.5428 50.5769 16.9323 53.116 17.669C53.15 17.6794 53.1811 17.6926 53.2123 17.7077C53.2358 17.7238 53.2604 17.7398 53.2878 17.753C53.3595 17.8039 53.4199 17.8728 53.4633 17.9549C53.5397 18.0992 53.5538 18.2643 53.4935 18.4501ZM54.6776 2.5296C54.6776 2.97107 54.5059 3.40689 54.1823 3.73045C53.8577 4.05401 53.4293 4.23324 52.9745 4.23419H52.9698C52.5169 4.23419 52.0913 4.05778 51.7705 3.73705C51.745 3.71158 51.7205 3.68517 51.6969 3.65687L54.6776 2.5296ZM59.5427 0.459937C59.1058 0.0203472 58.4736 -0.117378 57.8915 0.104303L54.9664 1.21083C54.9475 1.21554 54.9296 1.2212 54.9107 1.22875C54.8918 1.23535 54.872 1.24384 54.8541 1.25327L42.9066 5.77275C42.8047 5.68408 42.6933 5.60673 42.5716 5.54258C42.1555 5.32373 41.6582 5.28222 41.2091 5.42749C40.2995 5.72558 39.8013 6.68306 40.0749 7.60846C40.9298 10.5026 42.5197 13.1703 44.6729 15.3239C46.8318 17.4813 49.5069 19.0737 52.4112 19.9274C52.5801 19.9764 52.748 20 52.915 20C53.6501 20 54.3248 19.5397 54.5663 18.8114L54.5767 18.7793C54.7239 18.3341 54.6833 17.8417 54.4663 17.4275C54.3955 17.2945 54.3106 17.1738 54.2125 17.0663C55.1806 14.5061 56.8167 10.2073 58.2 6.57175L59.8956 2.11076C60.1164 1.53061 59.9815 0.898584 59.5427 0.459937Z" fill="#202020"/>
</svg>
