<svg width="14" height="18" viewBox="0 0 14 18" fill="none" xmlns="http://www.w3.org/2000/svg">
<path fill-rule="evenodd" clip-rule="evenodd" d="M11.3161 15.1923C9.99231 16.5473 8.00486 17.207 6.12673 16.9124C4.42369 16.6458 2.90086 15.5964 1.94855 14.0333C0.99796 12.472 0.768217 10.6465 1.31995 9.02404C1.44038 8.67 1.59497 8.32699 1.74785 7.98313C2.01944 7.37522 2.30044 6.74694 2.41745 6.04988C2.56777 5.15331 2.42941 4.27286 2.24322 3.44845C3.55082 4.25164 4.25031 5.97347 3.84377 7.44994C3.78996 7.64606 3.85914 7.85577 4.01885 7.98228C4.18028 8.11048 4.39978 8.13001 4.57999 8.03407C5.28034 7.6622 5.67235 6.98212 5.90637 6.50242C6.76985 4.73134 6.71007 3.10714 6.40773 1.39465C8.24913 2.47207 9.77025 4.76615 9.97352 6.93627C10.0538 7.80144 9.96156 8.67764 9.69765 9.53855C9.47473 10.2687 9.79331 11.0269 10.4723 11.3835C11.1248 11.7265 11.8721 11.5703 12.3316 10.9997C12.5426 10.7391 12.7339 10.4674 12.9064 10.1872C13.19 11.9693 12.6152 13.8644 11.3161 15.1923ZM13.512 8.57575C13.4334 8.38387 13.2455 8.25821 13.038 8.25821H13.0286C12.8176 8.26246 12.6297 8.39491 12.5571 8.59188C12.3316 9.19724 11.978 9.8094 11.5322 10.3621C11.3161 10.6313 11.0539 10.537 10.9506 10.4818C10.7644 10.3842 10.5808 10.1558 10.679 9.83487C10.9805 8.84659 11.0864 7.83964 10.9942 6.84203C10.7226 3.9324 8.47717 0.939565 5.88332 0.0285546C5.70908 -0.0317266 5.51435 0.0047817 5.37514 0.125344C5.23592 0.246756 5.17272 0.433543 5.21116 0.613537C5.62539 2.58329 5.87221 4.2355 4.98396 6.05837L4.96262 6.10168C4.80974 4.61078 3.93174 3.19884 2.5857 2.46867C1.99809 2.15113 1.62486 2.33877 1.4549 2.48141C1.04579 2.82187 1.17049 3.35846 1.21148 3.5359C1.38913 4.29748 1.53603 5.10916 1.40621 5.88263C1.31056 6.45148 1.068 6.99486 0.810919 7.56965C0.645227 7.94153 0.479536 8.31425 0.348862 8.69886C-0.299387 10.6058 -0.0363299 12.7428 1.07227 14.5614C2.18087 16.3817 3.96505 17.6052 5.96702 17.9185C6.31377 17.9728 6.6631 18 7.01242 18C8.88286 17.9992 10.7439 17.2401 12.0515 15.902C13.933 13.9756 14.5207 11.032 13.512 8.57575Z" fill="#202020"/>
</svg>
