<svg width="101" height="43" viewBox="0 0 101 43" fill="none" xmlns="http://www.w3.org/2000/svg">
<path d="M8.51332 29.2727V38H6.91957L3.12269 32.5071H3.05877V38H1.2136V29.2727H2.83292L6.59996 34.7614H6.67667V29.2727H8.51332ZM11.5378 38V29.2727H17.4185V30.794H13.383V32.8736H17.1159V34.3949H13.383V36.4787H17.4355V38H11.5378ZM21.8897 38H19.9125L22.9252 29.2727H25.3031L28.3116 38H26.3343L24.1483 31.267H24.0801L21.8897 38ZM21.7662 34.5696H26.4366V36.0099H21.7662V34.5696ZM30.862 38V29.2727H34.3052C34.9672 29.2727 35.5311 29.3991 35.997 29.652C36.4629 29.902 36.818 30.25 37.0623 30.696C37.3095 31.1392 37.4331 31.6506 37.4331 32.2301C37.4331 32.8097 37.3081 33.321 37.0581 33.7642C36.8081 34.2074 36.4458 34.5526 35.9714 34.7997C35.4998 35.0469 34.9288 35.1705 34.2583 35.1705H32.0637V33.6918H33.96C34.3152 33.6918 34.6078 33.6307 34.8379 33.5085C35.0708 33.3835 35.2441 33.2116 35.3578 32.9929C35.4743 32.7713 35.5325 32.517 35.5325 32.2301C35.5325 31.9403 35.4743 31.6875 35.3578 31.4716C35.2441 31.2528 35.0708 31.0838 34.8379 30.9645C34.6049 30.8423 34.3095 30.7812 33.9515 30.7812H32.7072V38H30.862ZM48.1515 33.6364C48.1515 34.5881 47.9711 35.3977 47.6103 36.0653C47.2523 36.733 46.7637 37.2429 46.1444 37.5952C45.5279 37.9446 44.8347 38.1193 44.0648 38.1193C43.2892 38.1193 42.5932 37.9432 41.9767 37.5909C41.3603 37.2386 40.873 36.7287 40.5151 36.0611C40.1571 35.3935 39.9782 34.5852 39.9782 33.6364C39.9782 32.6847 40.1571 31.875 40.5151 31.2074C40.873 30.5398 41.3603 30.0312 41.9767 29.6818C42.5932 29.3295 43.2892 29.1534 44.0648 29.1534C44.8347 29.1534 45.5279 29.3295 46.1444 29.6818C46.7637 30.0312 47.2523 30.5398 47.6103 31.2074C47.9711 31.875 48.1515 32.6847 48.1515 33.6364ZM46.2807 33.6364C46.2807 33.0199 46.1884 32.5 46.0037 32.0767C45.8219 31.6534 45.5648 31.3324 45.2324 31.1136C44.9 30.8949 44.5108 30.7855 44.0648 30.7855C43.6188 30.7855 43.2296 30.8949 42.8972 31.1136C42.5648 31.3324 42.3063 31.6534 42.1216 32.0767C41.9398 32.5 41.8489 33.0199 41.8489 33.6364C41.8489 34.2528 41.9398 34.7727 42.1216 35.196C42.3063 35.6193 42.5648 35.9403 42.8972 36.1591C43.2296 36.3778 43.6188 36.4872 44.0648 36.4872C44.5108 36.4872 44.9 36.3778 45.2324 36.1591C45.5648 35.9403 45.8219 35.6193 46.0037 35.196C46.1884 34.7727 46.2807 34.2528 46.2807 33.6364ZM51.0183 38V29.2727H52.8635V36.4787H56.6049V38H51.0183ZM61.1721 29.2727V38H59.3269V29.2727H61.1721ZM63.8578 30.794V29.2727H71.0254V30.794H68.3535V38H66.5297V30.794H63.8578ZM74.1436 38H72.1664L75.1792 29.2727H77.557L80.5655 38H78.5882L76.4022 31.267H76.334L74.1436 38ZM74.0201 34.5696H78.6905V36.0099H74.0201V34.5696ZM90.4157 29.2727V38H88.8219L85.025 32.5071H84.9611V38H83.1159V29.2727H84.7353L88.5023 34.7614H88.579V29.2727H90.4157ZM98.1745 31.7827C98.1404 31.4389 97.9941 31.1719 97.7356 30.9815C97.4771 30.7912 97.1262 30.696 96.6831 30.696C96.3819 30.696 96.1277 30.7386 95.9203 30.8239C95.7129 30.9062 95.5538 31.0213 95.443 31.169C95.335 31.3168 95.2811 31.4844 95.2811 31.6719C95.2754 31.8281 95.3081 31.9645 95.3791 32.081C95.4529 32.1974 95.5538 32.2983 95.6816 32.3835C95.8095 32.4659 95.9572 32.5384 96.1248 32.6009C96.2924 32.6605 96.4714 32.7116 96.6618 32.7543L97.4458 32.9418C97.8265 33.027 98.176 33.1406 98.4941 33.2827C98.8123 33.4247 99.0879 33.5994 99.3208 33.8068C99.5538 34.0142 99.7342 34.2585 99.862 34.5398C99.9927 34.821 100.059 35.1435 100.062 35.5071C100.059 36.0412 99.9231 36.5043 99.6532 36.8963C99.3862 37.2855 98.9998 37.5881 98.4941 37.804C97.9913 38.017 97.3848 38.1236 96.6745 38.1236C95.97 38.1236 95.3564 38.0156 94.8336 37.7997C94.3137 37.5838 93.9075 37.2642 93.6149 36.8409C93.3251 36.4148 93.1731 35.8878 93.1589 35.2599H94.9444C94.9643 35.5526 95.0481 35.7969 95.1958 35.9929C95.3464 36.1861 95.5467 36.3324 95.7967 36.4318C96.0495 36.5284 96.335 36.5767 96.6532 36.5767C96.9657 36.5767 97.237 36.5312 97.4672 36.4403C97.7001 36.3494 97.8805 36.223 98.0083 36.0611C98.1362 35.8991 98.2001 35.7131 98.2001 35.5028C98.2001 35.3068 98.1419 35.142 98.0254 35.0085C97.9118 34.875 97.7441 34.7614 97.5225 34.6676C97.3038 34.5739 97.0353 34.4886 96.7172 34.4119L95.7669 34.1733C95.0311 33.9943 94.4501 33.7145 94.024 33.3338C93.5978 32.9531 93.3862 32.4403 93.389 31.7955C93.3862 31.267 93.5268 30.8054 93.8109 30.4105C94.0978 30.0156 94.4913 29.7074 94.9913 29.4858C95.4913 29.2642 96.0595 29.1534 96.6958 29.1534C97.3436 29.1534 97.9089 29.2642 98.3919 29.4858C98.8777 29.7074 99.2555 30.0156 99.5254 30.4105C99.7953 30.8054 99.9345 31.2628 99.943 31.7827H98.1745Z" fill="#FBFBFB"/>
<path fill-rule="evenodd" clip-rule="evenodd" d="M50.675 10.4328C50.0098 11.0978 48.9275 11.0988 48.2623 10.4328C47.5971 9.76774 47.5971 8.6848 48.2623 8.01975C48.5944 7.6877 49.0322 7.52168 49.4691 7.52168C49.9069 7.52168 50.3429 7.6877 50.675 8.01975C51.3412 8.6848 51.3412 9.76774 50.675 10.4328ZM47.4612 7.21981C46.3553 8.32634 46.3553 10.1262 47.4612 11.2337C48.016 11.7865 48.7416 12.0629 49.4691 12.0629C50.1957 12.0629 50.9232 11.7865 51.4761 11.2337C52.5829 10.1262 52.5829 8.32634 51.4761 7.21981C50.3702 6.11329 48.5689 6.11235 47.4612 7.21981ZM58.8379 1.70796L57.1583 6.12178C56.2043 5.88878 55.1796 6.15951 54.4682 6.87078C53.3614 7.97825 53.3613 9.78189 54.4691 10.8894C54.6729 11.0931 54.9013 11.262 55.1532 11.394C54.4163 13.3335 53.7246 15.1522 53.2094 16.5154C50.9401 15.8163 48.8473 14.5523 47.146 12.8515C45.4401 11.1459 44.1747 9.04515 43.4784 6.76607L50.5967 4.07288C50.7052 4.24173 50.8307 4.39832 50.9694 4.53794C51.5053 5.07186 52.2149 5.36618 52.9698 5.36618H52.9773C53.7331 5.36429 54.4455 5.06809 54.9824 4.53133C55.6222 3.89081 55.909 2.98617 55.7778 2.11359L58.2915 1.16272C58.5246 1.07687 58.6831 1.20045 58.7426 1.25988C58.8001 1.31742 58.9256 1.47779 58.8379 1.70796ZM55.5618 10.3224C55.4561 10.2554 55.3589 10.1781 55.2693 10.0885C54.6022 9.42248 54.6021 8.33766 55.2683 7.67167C55.6627 7.27736 56.2176 7.1085 56.7507 7.1934C56.36 8.21974 55.9581 9.2791 55.5618 10.3224ZM53.4935 18.4501C53.4925 18.4511 53.4916 18.4529 53.4916 18.4548C53.3887 18.7661 53.0537 18.9369 52.7301 18.8416C50.0079 18.0407 47.4989 16.5474 45.474 14.523C43.4538 12.5034 41.9621 10.0007 41.16 7.28773C41.0619 6.9538 41.2374 6.60948 41.561 6.50383C41.6242 6.48308 41.6912 6.4727 41.7554 6.4727C41.8545 6.4727 41.9526 6.49628 42.0432 6.54439C42.1885 6.61986 42.2923 6.74815 42.3376 6.90286C43.0745 9.4338 44.4606 11.7676 46.3459 13.6524C48.2368 15.5428 50.5769 16.9323 53.116 17.669C53.15 17.6794 53.1811 17.6926 53.2123 17.7077C53.2358 17.7238 53.2604 17.7398 53.2878 17.753C53.3595 17.8039 53.4199 17.8728 53.4633 17.9549C53.5397 18.0992 53.5538 18.2643 53.4935 18.4501ZM54.6776 2.5296C54.6776 2.97107 54.5059 3.40689 54.1823 3.73045C53.8577 4.05401 53.4293 4.23324 52.9745 4.23419H52.9698C52.5169 4.23419 52.0913 4.05778 51.7705 3.73705C51.745 3.71158 51.7205 3.68517 51.6969 3.65687L54.6776 2.5296ZM59.5427 0.459937C59.1058 0.0203472 58.4736 -0.117378 57.8915 0.104303L54.9664 1.21083C54.9475 1.21554 54.9296 1.2212 54.9107 1.22875C54.8918 1.23535 54.872 1.24384 54.8541 1.25327L42.9066 5.77275C42.8047 5.68408 42.6933 5.60673 42.5716 5.54258C42.1555 5.32373 41.6582 5.28222 41.2091 5.42749C40.2995 5.72558 39.8013 6.68306 40.0749 7.60846C40.9298 10.5026 42.5197 13.1703 44.6729 15.3239C46.8318 17.4813 49.5069 19.0737 52.4112 19.9274C52.5801 19.9764 52.748 20 52.915 20C53.6501 20 54.3248 19.5397 54.5663 18.8114L54.5767 18.7793C54.7239 18.3341 54.6833 17.8417 54.4663 17.4275C54.3955 17.2945 54.3106 17.1738 54.2125 17.0663C55.1806 14.5061 56.8167 10.2073 58.2 6.57175L59.8956 2.11076C60.1164 1.53061 59.9815 0.898584 59.5427 0.459937Z" fill="#FBFBFB"/>
</svg>
